<svg xmlns="http://www.w3.org/2000/svg" viewBox="0 0 436 436">
  <path d="M0 0h436v436H0zM270.5 36.2c2 2 2.8 12.1 3 39.8l.2 30.5 21.6.5c11.8.3 21.8.8 22.2 1.2.3.3 1 4.6 1.5 9.5.5 4.8 1.6 12.6 2.5 17.2 1.7 8.6 1.7 8.1-1.7 23.3-1.4 6.7-1.3 36.5.2 43.8 2.1 10 2.2 15.9.5 24.7-2.4 12.2-2.4 36.3.1 45.8 2.3 8.8 2.3 21.3.1 33-.9 4.9-1.7 10.9-1.7 13.2v4.3h20.3c11.1 0 20.8.4 21.6.9 1 .6 1.8 5.1 2.7 14.8.8 7.6 1.6 15.2 2 16.8.7 3.9-2.3 36.1-3.7 38.7-1 1.8-2.1 1.9-21.4 1.6-13.5-.2-20.8-.7-21.5-1.4-2.2-2.2-3.3-30.1-2.1-50.1.6-10.2.8-18.9.5-19.4-.8-1.3-41.7-1.2-43.1.2-1.2 1.2-.8 14.6.8 26.1.8 5.5.8 9.5.1 14-.6 3.5-1.4 9.9-1.7 14.3-.9 12.3-1.4 14.1-4.1 15.4-1.8.8-21.7 1.1-67.9 1.1h-65.3l-1.1-3.3c-3.1-9.7-4.3-33.6-2.7-53.3.5-5.6.6-11.3.2-12.8l-.6-2.6h-19.4c-21.1 0-25.2-.4-26.1-2.8-1.2-3.3-1.7-39.2-.6-52.2 1.5-18.6-.2-17.4 26-18 11.5-.3 21.3-.8 21.7-1.2.4-.4.1-5.2-.5-10.5-.7-5.4-1.7-13-2.2-16.8-.7-5.6-.5-9.1 1.1-17.1 1-5.5 2.2-13 2.6-16.6.4-3.6 1-7.2 1.5-7.9.7-1.2 12.8-1.5 66.5-1.9l65.8-.5.8-3c.5-1.8.4-7.2-.3-13-1.2-11.5-.7-34.6 1.1-45.4 1-6.1 1-7.5-.1-8.2-.8-.5-30-.9-65-.9h-63.6l-2.7-2.5c-1.8-1.6-2.6-3.4-2.6-5.7 0-1.8-.5-8.7-1-15.3-1-12.8.5-44.9 2.2-47.2.5-.7 2.6-1.3 4.6-1.5 7.8-.6 128.1-.3 128.7.4zM136 252.7c0 .5-.1 16.4-.3 35.6l-.2 34.7 62.5.1c70.4.1 70.8.1 72.2-.7.5-.4.7-2 .4-3.8-2.9-14.1-3.2-49.1-.6-59.5.9-3.8.8-4.5-.7-5.7-1.5-1.1-13.9-1.3-67.5-1.4-36.2 0-65.8.3-65.8.7z"/>
</svg>
