<svg xmlns="http://www.w3.org/2000/svg" viewBox="0 0 26 24">
  <path d="m20.529 3.268-1.378 2.389 3.482 6.028a.3.3 0 0 1 0 .305l-3.482 6.033 1.378 2.389 4.95-8.575-4.95-8.574v.005Zm-1.911 2.079 1.377-2.389H17.24l-1.377 2.389h2.755Zm-2.76.62 3.217 5.565h2.755l-3.212-5.565h-2.76Zm2.76 11.75 3.212-5.57h-2.755l-3.217 5.57h2.76Zm-2.76.621 1.377 2.379h2.755l-1.377-2.379h-2.755ZM6.521 21.306a.3.3 0 0 1-.264-.152L2.77 15.121H.015l4.951 8.569h9.896l-1.378-2.384H6.521Zm7.497-.31 1.377 2.384 1.378-2.389-1.378-2.389-1.377 2.389v.005Zm.844-2.699H8.437L7.06 20.686h6.424l1.378-2.389Zm-6.964-.305-3.217-5.57-1.377 2.389 3.217 5.57 1.377-2.389ZM.01 14.501h2.755l1.377-2.389h-2.75L.01 14.501ZM6.241 2.541a.3.3 0 0 1 .265-.152h6.968L14.851 0h-9.9L0 8.574h2.755l3.476-6.028.01-.005Zm-2.099 9.037L2.765 9.189H.01l1.378 2.389h2.754Zm2.369-8.264L3.299 8.879l1.377 2.389 3.212-5.565-1.377-2.389Zm6.968-.31H7.044l1.378 2.389h6.434l-1.377-2.389Zm1.916 2.079 1.373-2.384L15.395.31l-1.377 2.384 1.377 2.389Z"/>
</svg>
